0
SECTION
2
HEADER
9
$INSUNITS
70
4
9
$ACADVER
1
AC1014
9
$HANDSEED
5
FFFF
0
ENDSEC
0
SECTION
2
TABLES
0
TABLE
2
VPORT
5
8
100
AcDbSymbolTable
0
ENDTAB
0
TABLE
2
LTYPE
5
5
100
AcDbSymbolTable
0
LTYPE
5
14
100
AcDbSymbolTableRecord
100
AcDbLinetypeTableRecord
2
BYBLOCK
70
0
0
LTYPE
5
15
100
AcDbSymbolTableRecord
100
AcDbLinetypeTableRecord
2
BYLAYER
70
0
0
ENDTAB
0
TABLE
2
LAYER
5
2
100
AcDbSymbolTable
70
2
0
LAYER
5
50
100
AcDbSymbolTableRecord
100
AcDbLayerTableRecord
2
0
70
0
6
CONTINUOUS
0
ENDTAB
0
TABLE
2
STYLE
5
3
100
AcDbSymbolTable
70
1
0
STYLE
5
11
100
AcDbSymbolTableRecord
100
AcDbTextStyleTableRecord
2
STANDARD
70
0
0
ENDTAB
0
TABLE
2
VIEW
5
6
100
AcDbSymbolTable
70
0
0
ENDTAB
0
TABLE
2
UCS
5
7
100
AcDbSymbolTable
70
0
0
ENDTAB
0
TABLE
2
APPID
5
9
100
AcDbSymbolTable
70
2
0
APPID
5
12
100
AcDbSymbolTableRecord
100
AcDbRegAppTableRecord
2
ACAD
70
0
0
ENDTAB
0
TABLE
2
DIMSTYLE
5
A
100
AcDbSymbolTable
70
1
0
ENDTAB
0
TABLE
2
BLOCK_RECORD
5
1
100
AcDbSymbolTable
70
1
0
BLOCK_RECORD
5
1F
100
AcDbSymbolTableRecord
100
AcDbBlockTableRecord
2
*MODEL_SPACE
0
BLOCK_RECORD
5
1B
100
AcDbSymbolTableRecord
100
AcDbBlockTableRecord
2
*PAPER_SPACE
0
ENDTAB
0
ENDSEC
0
SECTION
2
BLOCKS
0
BLOCK
5
20
100
AcDbEntity
100
AcDbBlockBegin
2
*MODEL_SPACE
0
ENDBLK
5
21
100
AcDbEntity
100
AcDbBlockEnd
0
BLOCK
5
1C
100
AcDbEntity
100
AcDbBlockBegin
2
*PAPER_SPACE
0
ENDBLK
5
1D
100
AcDbEntity
100
AcDbBlockEnd
0
ENDSEC
0
SECTION
2
ENTITIES
0
LWPOLYLINE
5
100
100
AcDbEntity
8
0
100
AcDbPolyline
90
4
70
1
43
0.0
10
7.0000000000000009
20
7.0000000000000009
10
-7.0000000000000009
20
7.0000000000000009
10
-7.0000000000000009
20
-7.0000000000000009
10
7.0000000000000009
20
-7.0000000000000009
0
LINE
5
101
100
AcDbEntity
8
0
100
AcDbLine
10
7.0000000000000009
20
7.0000000000000009
30
0
11
-7.0000000000000009
21
-7.0000000000000009
31
0
0
LINE
5
102
100
AcDbEntity
8
0
100
AcDbLine
10
-7.0000000000000009
20
7.0000000000000009
30
0
11
7.0000000000000009
21
-7.0000000000000009
31
0
0
LWPOLYLINE
5
103
100
AcDbEntity
8
0
100
AcDbPolyline
90
4
70
1
43
0.0
10
7.0000000000000009
20
26
10
-7.0000000000000009
20
26
10
-7.0000000000000009
20
12.000000000000002
10
7.0000000000000009
20
12.000000000000002
0
LWPOLYLINE
5
104
100
AcDbEntity
8
0
100
AcDbPolyline
90
4
70
1
43
0.0
10
7.0000000000000009
20
45
10
-7.0000000000000009
20
45
10
-7.0000000000000009
20
31
10
7.0000000000000009
20
31
0
LWPOLYLINE
5
105
100
AcDbEntity
8
0
100
AcDbPolyline
90
4
70
1
43
0.0
10
7.0000000000000009
20
64
10
-7.0000000000000009
20
64
10
-7.0000000000000009
20
50
10
7.0000000000000009
20
50
0
LWPOLYLINE
5
106
100
AcDbEntity
8
0
100
AcDbPolyline
90
4
70
1
43
0.0
10
7.0000000000000009
20
83
10
-7.0000000000000009
20
83
10
-7.0000000000000009
20
69
10
7.0000000000000009
20
69
0
LWPOLYLINE
5
107
100
AcDbEntity
8
0
100
AcDbPolyline
90
4
70
1
43
0.0
10
26
20
7.0000000000000178
10
12.000000000000002
20
7.0000000000000062
10
12
20
-6.9999999999999982
10
26.000000000000007
20
-6.9999999999999929
0
LINE
5
108
100
AcDbEntity
8
0
100
AcDbLine
10
26
20
7.0000000000000178
30
0
11
12
21
-6.9999999999999982
31
0
0
LINE
5
109
100
AcDbEntity
8
0
100
AcDbLine
10
12.000000000000002
20
7.0000000000000062
30
0
11
26.000000000000007
21
-6.9999999999999929
31
0
0
LWPOLYLINE
5
110
100
AcDbEntity
8
0
100
AcDbPolyline
90
4
70
1
43
0.0
10
26
20
26.000000000000018
10
12.000000000000002
20
26.000000000000007
10
12
20
12.000000000000002
10
26.000000000000007
20
12.000000000000007
0
LWPOLYLINE
5
111
100
AcDbEntity
8
0
100
AcDbPolyline
90
4
70
1
43
0.0
10
26
20
45.000000000000028
10
12.000000000000002
20
45.000000000000007
10
12
20
31
10
26.000000000000007
20
31.000000000000011
0
LWPOLYLINE
5
112
100
AcDbEntity
8
0
100
AcDbPolyline
90
4
70
1
43
0.0
10
26
20
64.000000000000028
10
12.000000000000002
20
64.000000000000014
10
12
20
50.000000000000007
10
26.000000000000007
20
50.000000000000007
0
LWPOLYLINE
5
113
100
AcDbEntity
8
0
100
AcDbPolyline
90
4
70
1
43
0.0
10
26
20
83.000000000000028
10
12.000000000000002
20
83
10
12
20
69.000000000000014
10
26.000000000000007
20
69.000000000000014
0
LWPOLYLINE
5
114
100
AcDbEntity
8
0
100
AcDbPolyline
90
4
70
1
43
0.0
10
45
20
-2.9999999999999982
10
31.000000000000007
20
-2.9999999999999938
10
31.000000000000007
20
11.000000000000005
10
45
20
11.000000000000005
0
LINE
5
115
100
AcDbEntity
8
0
100
AcDbLine
10
45
20
-2.9999999999999982
30
0
11
31.000000000000007
21
11.000000000000005
31
0
0
LINE
5
116
100
AcDbEntity
8
0
100
AcDbLine
10
31.000000000000007
20
-2.9999999999999938
30
0
11
45
21
11.000000000000005
31
0
0
LWPOLYLINE
5
117
100
AcDbEntity
8
0
100
AcDbPolyline
90
4
70
1
43
0.0
10
31.000000000000007
20
16.000000000000007
10
31.000000000000007
20
30.000000000000007
10
45
20
30.000000000000007
10
45
20
16.000000000000004
0
LWPOLYLINE
5
118
100
AcDbEntity
8
0
100
AcDbPolyline
90
4
70
1
43
0.0
10
31.000000000000007
20
35.000000000000007
10
31.000000000000007
20
49.000000000000014
10
45
20
49.000000000000014
10
45
20
35.000000000000007
0
LWPOLYLINE
5
119
100
AcDbEntity
8
0
100
AcDbPolyline
90
4
70
1
43
0.0
10
31.000000000000007
20
54.000000000000014
10
31.000000000000007
20
68
10
45
20
68
10
45
20
54
0
LWPOLYLINE
5
120
100
AcDbEntity
8
0
100
AcDbPolyline
90
4
70
1
43
0.0
10
31.000000000000007
20
73.000000000000014
10
31.000000000000007
20
87.000000000000028
10
45
20
87.000000000000028
10
45
20
73
0
LWPOLYLINE
5
121
100
AcDbEntity
8
0
100
AcDbPolyline
90
4
70
1
43
0.0
10
64
20
1.000000000000002
10
50
20
1.000000000000012
10
50
20
15.000000000000011
10
64
20
15.000000000000009
0
LINE
5
122
100
AcDbEntity
8
0
100
AcDbLine
10
64
20
1.000000000000002
30
0
11
50
21
15.000000000000011
31
0
0
LINE
5
123
100
AcDbEntity
8
0
100
AcDbLine
10
50
20
1.000000000000012
30
0
11
64
21
15.000000000000009
31
0
0
LWPOLYLINE
5
124
100
AcDbEntity
8
0
100
AcDbPolyline
90
4
70
1
43
0.0
10
50
20
34.000000000000014
10
64
20
34.000000000000014
10
64
20
20
10
50
20
20.000000000000007
0
LWPOLYLINE
5
125
100
AcDbEntity
8
0
100
AcDbPolyline
90
4
70
1
43
0.0
10
50
20
53.000000000000007
10
64
20
53.000000000000007
10
64
20
39
10
50
20
39.000000000000014
0
LWPOLYLINE
5
126
100
AcDbEntity
8
0
100
AcDbPolyline
90
4
70
1
43
0.0
10
50
20
72.000000000000014
10
64
20
72.000000000000014
10
64
20
58
10
50
20
58.000000000000007
0
LWPOLYLINE
5
127
100
AcDbEntity
8
0
100
AcDbPolyline
90
4
70
1
43
0.0
10
50
20
91.000000000000014
10
64
20
91.000000000000014
10
64
20
77
10
50
20
77.000000000000014
0
LWPOLYLINE
5
128
100
AcDbEntity
8
0
100
AcDbPolyline
90
4
70
1
43
0.0
10
83.000000000000043
20
15.999999999999979
10
69
20
15.999999999999996
10
69
20
30
10
83
20
29.999999999999996
0
LINE
5
129
100
AcDbEntity
8
0
100
AcDbLine
10
83.000000000000043
20
15.999999999999979
30
0
11
69
21
30
31
0
0
LINE
5
130
100
AcDbEntity
8
0
100
AcDbLine
10
69
20
15.999999999999996
30
0
11
83
21
29.999999999999996
31
0
0
LWPOLYLINE
5
131
100
AcDbEntity
8
0
100
AcDbPolyline
90
4
70
1
43
0.0
10
69
20
35
10
69
20
49
10
83
20
49
10
83.000000000000043
20
34.999999999999986
0
LWPOLYLINE
5
132
100
AcDbEntity
8
0
100
AcDbPolyline
90
4
70
1
43
0.0
10
69
20
54
10
69
20
68
10
83
20
67.999999999999986
10
83.000000000000043
20
53.999999999999986
0
LWPOLYLINE
5
133
100
AcDbEntity
8
0
100
AcDbPolyline
90
4
70
1
43
0.0
10
69
20
73
10
69
20
87
10
83
20
87
10
83.000000000000043
20
72.999999999999986
0
LWPOLYLINE
5
134
100
AcDbEntity
8
0
100
AcDbPolyline
90
4
70
1
43
0.0
10
102.00000000000001
20
11.999999999999867
10
88
20
11.999999999999876
10
88
20
25.999999999999876
10
102.00000000000001
20
25.999999999999879
0
LINE
5
135
100
AcDbEntity
8
0
100
AcDbLine
10
102.00000000000001
20
11.999999999999867
30
0
11
88
21
25.999999999999876
31
0
0
LINE
5
136
100
AcDbEntity
8
0
100
AcDbLine
10
88
20
11.999999999999876
30
0
11
102.00000000000001
21
25.999999999999879
31
0
0
LWPOLYLINE
5
137
100
AcDbEntity
8
0
100
AcDbPolyline
90
4
70
1
43
0.0
10
102.00000000000001
20
30.999999999999865
10
88
20
30.999999999999872
10
88
20
44.999999999999872
10
102.00000000000001
20
44.999999999999872
0
LWPOLYLINE
5
138
100
AcDbEntity
8
0
100
AcDbPolyline
90
4
70
1
43
0.0
10
102.00000000000001
20
49.999999999999865
10
88
20
49.999999999999872
10
88
20
63.999999999999879
10
102.00000000000001
20
63.999999999999879
0
LWPOLYLINE
5
139
100
AcDbEntity
8
0
100
AcDbPolyline
90
4
70
1
43
0.0
10
102.00000000000001
20
68.999999999999872
10
88
20
68.999999999999872
10
88
20
82.999999999999886
10
102.00000000000001
20
82.999999999999886
0
LWPOLYLINE
5
140
100
AcDbEntity
8
0
100
AcDbPolyline
90
4
70
1
43
0.0
10
121.00000000000001
20
61.999999999999844
10
107.00000000000001
20
61.999999999999922
10
107.00000000000001
20
75.999999999999886
10
121.00000000000001
20
75.999999999999886
0
LINE
5
141
100
AcDbEntity
8
0
100
AcDbLine
10
121.00000000000001
20
61.999999999999844
30
0
11
107.00000000000001
21
75.999999999999886
31
0
0
LINE
5
142
100
AcDbEntity
8
0
100
AcDbLine
10
107.00000000000001
20
61.999999999999922
30
0
11
121.00000000000001
21
75.999999999999886
31
0
0
LWPOLYLINE
5
143
100
AcDbEntity
8
0
100
AcDbPolyline
90
4
70
1
43
0.0
10
121.00000000000001
20
38.999999999999837
10
107.00000000000001
20
38.999999999999922
10
107.00000000000001
20
52.999999999999886
10
121.00000000000001
20
52.999999999999886
0
LINE
5
144
100
AcDbEntity
8
0
100
AcDbLine
10
88
20
11.999999999999876
30
0
11
110
21
11.999999999999854
31
0
0
LINE
5
145
100
AcDbEntity
8
0
100
AcDbLine
10
102.00000000000001
20
11.999999999999867
30
0
11
107
21
11.999999999999867
31
0
0
LINE
5
146
100
AcDbEntity
8
0
100
AcDbLine
10
107
20
11.999999999999867
30
0
11
120.99999999999997
21
11.999999999999902
31
0
0
LINE
5
147
100
AcDbEntity
8
0
100
AcDbLine
10
120.99999999999997
20
11.999999999999902
30
0
11
110.00000000000001
21
11.999999999999813
31
0
0
LINE
5
148
100
AcDbEntity
8
0
100
AcDbLine
10
110.00000000000001
20
11.999999999999813
30
0
11
138.57883832488648
21
-4.500000000000199
31
0
0
LINE
5
149
100
AcDbEntity
8
0
100
AcDbLine
10
110.00000000000001
20
11.999999999999813
30
0
11
126.64219877740165
21
11.999999999999744
31
0
0
LWPOLYLINE
5
150
100
AcDbEntity
8
0
100
AcDbPolyline
90
2
70
1
43
0.0
10
110.00000000000001
20
11.999999999999813
10
122.12435565298219
20
4.9999999999998295
0
LWPOLYLINE
5
151
100
AcDbEntity
8
0
100
AcDbPolyline
90
2
70
1
43
0.0
10
138.57883832488642
20
-4.4999999999998517
10
126.45448267190447
20
2.5000000000000133
0
LINE
5
152
100
AcDbEntity
8
0
100
AcDbLine
10
64
20
1.000000000000002
30
0
11
103.64914703891436
21
0.99999999999999845
31
0
0
LWPOLYLINE
5
153
100
AcDbEntity
8
0
100
AcDbPolyline
90
4
70
1
43
0.0
10
73.30648414320197
20
-3.3758847573334632
10
86.694750726684461
20
-7.4690886234517269
10
90.787954592802663
20
5.9191779600307814
10
77.3996880093203
20
10.012381826149038
0
LINE
5
154
100
AcDbEntity
8
0
100
AcDbLine
10
122.12435565298219
20
4.9999999999998295
30
0
11
129.12435565298216
21
17.124355652981983
31
0
0
LINE
5
155
100
AcDbEntity
8
0
100
AcDbLine
10
129.12435565298216
20
17.124355652981983
30
0
11
117
21
24.124355652981965
31
0
0
LINE
5
156
100
AcDbEntity
8
0
100
AcDbLine
10
117
20
24.124355652981965
30
0
11
110.00000000000001
21
11.999999999999813
31
0
0
LINE
5
157
100
AcDbEntity
8
0
100
AcDbLine
10
138.57883832488642
20
-4.4999999999998517
30
0
11
145.57883832488645
21
7.6243556529822349
31
0
0
LINE
5
158
100
AcDbEntity
8
0
100
AcDbLine
10
145.57883832488645
20
7.6243556529822349
30
0
11
133.45448267190446
21
14.624355652982157
31
0
0
LINE
5
159
100
AcDbEntity
8
0
100
AcDbLine
10
133.45448267190446
20
14.624355652982157
30
0
11
126.45448267190447
21
2.5000000000000133
31
0
0
LWPOLYLINE
5
160
100
AcDbEntity
8
0
100
AcDbPolyline
90
4
70
1
43
0.0
10
110.00000000000001
20
11.999999999999813
10
138.57883832488642
20
-4.4999999999998517
10
136.07883832488645
20
-8.8301270189220631
10
107.50000000000006
20
7.6698729810776021
0
LWPOLYLINE
5
161
100
AcDbEntity
8
0
100
AcDbPolyline
90
4
70
1
43
0.0
10
107.50000000000006
20
7.6698729810776021
10
119.62435565298225
20
0.66987298107769599
10
112.62435565298235
20
-11.454482671904497
10
100.50000000000014
20
-4.4544826719045929
0
LINE
5
162
100
AcDbEntity
8
0
100
AcDbLine
10
112.62435565298235
20
-11.454482671904497
30
0
11
116.95448267190457
21
-13.954482671904467
31
0
0
LWPOLYLINE
5
163
100
AcDbEntity
8
0
100
AcDbPolyline
90
4
70
1
43
0.0
10
116.95448267190457
20
-13.954482671904467
10
129.07883832488676
20
-20.954482671904373
10
136.07883832488668
20
-8.8301270189221714
10
123.95448267190447
20
-1.8301270189222674
0
LINE
5
164
100
AcDbEntity
8
0
100
AcDbLine
10
-15.499999999999988
20
91.000000000000014
30
0
11
-15.500000000000014
21
-10.500000000000007
31
0
0
LINE
5
165
100
AcDbEntity
8
0
100
AcDbLine
10
-10.499999999999986
20
99.500000000000014
30
0
11
126.45251620258935
21
99.500000000000014
31
0
0
LINE
5
166
100
AcDbEntity
8
0
100
AcDbLine
10
136.30244751676338
20
-25.4428245375519
30
0
11
148.92820546547551
21
-3.5743702863162823
31
0
0
LINE
5
167
100
AcDbEntity
8
0
100
AcDbLine
10
-10.500000000000018
20
-15.499999999999998
30
0
11
69.599770127978132
21
-15.499999999999996
31
0
0
LINE
5
168
100
AcDbEntity
8
0
100
AcDbLine
10
73.30648414320197
20
-3.3758847573334632
30
0
11
69.599770127978132
21
-15.499999999999996
31
0
0
LINE
5
169
100
AcDbEntity
8
0
100
AcDbLine
10
124.03264587995659
20
29.879010237297429
30
0
11
150.00000223520001
21
14.886750055454739
31
0
0
LINE
5
170
100
AcDbEntity
8
0
100
AcDbLine
10
150.00000223520001
20
14.886750055454739
30
0
11
150.00000223520001
21
94.500000000000028
31
0
0
LINE
5
171
100
AcDbEntity
8
0
100
AcDbLine
10
126.45251620258935
20
99.500000000000014
30
0
11
145.00000223520001
21
99.500000000000028
31
0
0
LINE
5
172
100
AcDbEntity
8
0
100
AcDbLine
10
150.00000223520001
20
14.886750055454739
30
0
11
150.00000223520001
21
0.42562971368377028
31
0
0
LINE
5
173
100
AcDbEntity
8
0
100
AcDbLine
10
132.40533319973341
20
-27.692824537551871
30
0
11
108.45833883046835
21
-27.692824537551871
31
0
0
LINE
5
174
100
AcDbEntity
8
0
100
AcDbLine
10
105.95833883046838
20
-27.022951556474087
30
0
11
86.000001281499863
21
-15.5
31
0
0
LINE
5
175
100
AcDbEntity
8
0
100
AcDbLine
10
69.599770127978132
20
-15.499999999999996
30
0
11
86.000001281499863
21
-15.5
31
0
0
CIRCLE
5
176
100
AcDbEntity
8
0
100
AcDbCircle
10
-10.500000000000005
20
94.500000000000014
30
0
40
1.5000000000000036
210
0
220
0
230
1
0
CIRCLE
5
177
100
AcDbEntity
8
0
100
AcDbCircle
10
-10.499999999999988
20
-10.499999999999996
30
0
40
1.5000000000000009
210
0
220
0
230
1
0
CIRCLE
5
178
100
AcDbEntity
8
0
100
AcDbCircle
10
86.000001281499863
20
-10.5
30
0
40
1.4999999999999978
210
0
220
0
230
1
0
CIRCLE
5
179
100
AcDbEntity
8
0
100
AcDbCircle
10
107.11859286831276
20
-21.919321845655642
30
0
40
1.4999999999999933
210
0
220
0
230
1
0
CIRCLE
5
180
100
AcDbEntity
8
0
100
AcDbCircle
10
-10.499999999999988
20
38.011973730157194
30
0
40
1.5000000000000009
210
0
220
0
230
1
0
CIRCLE
5
181
100
AcDbEntity
8
0
100
AcDbCircle
10
67.250001117599993
20
94.500000000000028
30
0
40
1.5000000000000011
210
0
220
0
230
1
0
CIRCLE
5
182
100
AcDbEntity
8
0
100
AcDbCircle
10
145.00000223520001
20
94.500000000000028
30
0
40
1.5000000000000036
210
0
220
0
230
1
0
CIRCLE
5
183
100
AcDbEntity
8
0
100
AcDbCircle
10
138.17157880422118
20
-12.205394181658356
30
0
40
1.4999999999999978
210
0
220
0
230
1
0
CIRCLE
5
184
100
AcDbEntity
8
0
100
AcDbCircle
10
145.00000223520001
20
21.171616003282363
30
0
40
1.4999999999999978
210
0
220
0
230
1
0
LINE
5
185
100
AcDbEntity
8
0
100
AcDbLine
10
-10.500000000000005
20
94.500000000000014
30
0
11
145.00000223520001
21
94.500000000000028
31
0
0
LINE
5
186
100
AcDbEntity
8
0
100
AcDbLine
10
-10.499999999999986
20
99.500000000000014
30
0
11
-10.499999999999993
21
99.500000000000014
31
0
0
LINE
5
187
100
AcDbEntity
8
0
100
AcDbLine
10
-15.500000000000005
20
94.500000000000014
30
0
11
-15.500000000000005
21
94.500000000000014
31
0
0
LINE
5
188
100
AcDbEntity
8
0
100
AcDbLine
10
142.50170582314337
20
-14.705394181658352
30
0
11
138.17157880422118
21
-12.205394181658356
31
0
0
LWPOLYLINE
5
189
100
AcDbEntity
8
0
100
AcDbPolyline
90
4
70
1
43
0.0
10
144.50000223519999
20
41.999999999999879
10
125.50000223520001
20
41.999999999999879
10
125.50000223520001
20
74.999999999999886
10
144.50000223519999
20
74.999999999999886
0
LINE
5
190
100
AcDbEntity
8
0
100
AcDbLine
10
144.50000223519999
20
41.999999999999879
30
1.3324006441499128e-12
11
125.50000223520001
21
74.999999999999886
31
-1.3324006441499128e-12
0
LINE
5
191
100
AcDbEntity
8
0
100
AcDbLine
10
125.50000223520001
20
41.999999999999879
30
1.3324006441499128e-12
11
144.50000223519999
21
74.999999999999886
31
1.3324006441499128e-12
0
ARC
5
192
100
AcDbEntity
8
0
100
AcDbCircle
10
-10.500000000000023
20
-10.500000000000007
30
0
40
4.9999999999999911
210
0
220
0
230
1
100
AcDbArc
50
180
51
270.00000000000006
0
ARC
5
193
100
AcDbEntity
8
0
100
AcDbCircle
10
-10.49999999999997
20
94.499999999999972
30
0
40
5.0000000000000355
210
0
220
0
230
1
100
AcDbArc
50
90.00000000000027
51
180
0
LINE
5
194
100
AcDbEntity
8
0
100
AcDbLine
10
-15.500000000000005
20
94.500000000000014
30
0
11
-15.499999999999988
21
91.000000000000014
31
0
0
ARC
5
195
100
AcDbEntity
8
0
100
AcDbCircle
10
145.00000223519999
20
94.500000000000014
30
0
40
5.0000000000000178
210
0
220
-0
230
1
100
AcDbArc
50
0
51
89.999999999999673
0
LINE
5
196
100
AcDbEntity
8
0
100
AcDbLine
10
125.00000223520001
20
38.499999999999879
30
0
11
125.00000223520001
21
39.999999999999886
31
0
0
LINE
5
197
100
AcDbEntity
8
0
100
AcDbLine
10
125.00000223520001
20
76.999999999999872
30
0
11
125.00000223520001
21
78.499999999999886
31
0
0
LINE
5
198
100
AcDbEntity
8
0
100
AcDbLine
10
144.32918184195012
20
77.158359213500106
30
0
11
145.00000223520001
21
78.499999999999886
31
0
0
LINE
5
199
100
AcDbEntity
8
0
100
AcDbLine
10
145.00000223520001
20
78.499999999999886
30
0
11
145.00000223520001
21
77
31
0
0
LINE
5
200
100
AcDbEntity
8
0
100
AcDbLine
10
145.00000223520001
20
39.999999999999886
30
0
11
145.00000223520001
21
38.499999999999879
31
0
0
LINE
5
201
100
AcDbEntity
8
0
100
AcDbLine
10
145.00000223520001
20
38.499999999999879
30
0
11
143.50000223520001
21
38.499999999999879
31
0
0
LINE
5
202
100
AcDbEntity
8
0
100
AcDbLine
10
126.50000223520001
20
38.499999999999879
30
0
11
125.00000223520001
21
38.499999999999879
31
0
0
LINE
5
203
100
AcDbEntity
8
0
100
AcDbLine
10
125.00000223520001
20
38.499999999999879
30
0
11
125.67082262844994
21
39.841640786499759
31
0
0
LINE
5
204
100
AcDbEntity
8
0
100
AcDbLine
10
126.75000223520001
20
41.999999999999879
30
1.3324006441499128e-12
11
143.25000223519999
21
74.999999999999886
31
1.1570847699196625e-12
0
ARC
5
205
100
AcDbEntity
8
0
100
AcDbCircle
10
108.45833883046834
20
-22.692824537551939
30
0
40
4.9999999999999334
210
0
220
0
230
1
100
AcDbArc
50
240.00000000000011
51
270.00000000000017
0
ARC
5
206
100
AcDbEntity
8
0
100
AcDbCircle
10
132.40533319973341
20
-23.192824537551854
30
0
40
4.5000000000000195
210
0
220
0
230
1
100
AcDbArc
50
270
51
329.99999999999955
0
ARC
5
207
100
AcDbEntity
8
0
100
AcDbCircle
10
142.00000223520001
20
0.42562971368376989
30
0
40
8.0000000000000089
210
-0
220
0
230
1
100
AcDbArc
50
-30.000000000000373
51
0
0
LINE
5
208
100
AcDbEntity
8
0
100
AcDbLine
10
125.00000223520001
20
78.499999999999886
30
0
11
145.00000223520001
21
78.5
31
0
0
LINE
5
209
100
AcDbEntity
8
0
100
AcDbLine
10
125.00000223520001
20
38.499999999999879
30
0
11
145.00000223520001
21
38.499999999999879
31
0
0
CIRCLE
5
210
100
AcDbEntity
8
0
100
AcDbCircle
10
135.00000223520001
20
78.499999999999943
30
0
40
1.4999999999999925
210
0
220
0
230
1
0
CIRCLE
5
211
100
AcDbEntity
8
0
100
AcDbCircle
10
135.00000223520001
20
38.499999999999879
30
0
40
1.4999999999999973
210
0
220
0
230
1
0
LINE
5
212
100
AcDbEntity
8
0
100
AcDbLine
10
64
20
1.000000000000002
30
0
11
73.345750912780801
21
1.000000000000002
31
0
0
LINE
5
213
100
AcDbEntity
8
0
100
AcDbLine
10
64
20
1.000000000000002
30
0
11
73.971691908934062
21
1.000000000000002
31
0
0
LINE
5
214
100
AcDbEntity
8
0
100
AcDbLine
10
64
20
1.000000000000002
30
0
11
73.734436434505398
21
-1.976115884737347
31
0
0
LINE
5
215
100
AcDbEntity
8
0
100
AcDbLine
10
64
20
1.000000000000002
30
0
11
73.48683402189269
21
1.000000000000002
31
0
0
ENDSEC
0
SECTION
2
OBJECTS
0
DICTIONARY
5
C
100
AcDbDictionary
3
ACAD_GROUP
350
D
3
ACAD_MLINESTYLE
350
17
0
DICTIONARY
5
D
100
AcDbDictionary
0
DICTIONARY
5
1A
330
C
100
AcDbDictionary
0
DICTIONARY
5
17
100
AcDbDictionary
0
ENDSEC
0
EOF
