<?xml version="1.0" encoding="UTF-8" standalone="no"?>
<!DOCTYPE svg PUBLIC "-//W3C//DTD SVG 1.1//EN"
 "http://www.w3.org/Graphics/SVG/1.1/DTD/svg11.dtd">
<!-- Generated by graphviz version 12.2.1 (20241206.2353)
 -->
<!-- Title: chargingArmDeploy Pages: 1 -->
<svg width="280pt" height="28pt"
 viewBox="0.00 0.00 280.25 28.00" xmlns="http://www.w3.org/2000/svg" xmlns:xlink="http://www.w3.org/1999/xlink">
<g id="graph0" class="graph" transform="scale(1 1) rotate(0) translate(4 24)">
<title>chargingArmDeploy</title>
<!-- Node1 -->
<g id="Node000001" class="node">
<title>Node1</title>
<g id="a_Node000001"><a xlink:title="changingArmDeploy(), Moves a servo motor to deploy or retract a charging arm.">
<polygon fill="#999999" stroke="#666666" points="272.25,-20 170.75,-20 170.75,0 272.25,0 272.25,-20"/>
<text text-anchor="middle" x="221.5" y="-6.5" font-family="Helvetica,sans-Serif" font-size="10.00">chargingArmDeploy</text>
</a>
</g>
</g>
<!-- Node2 -->
<g id="Node000002" class="node">
<title>Node2</title>
<g id="a_Node000002"><a xlink:href="_a_v_l_a_b_s___a_v___r_k___m_k_i_i_8cpp.html#a456c92bd38c33b10ce243b3057a7d27e" target="_top" xlink:title="Checks the state of each key connected to a specific PCA9505 chip, triggers key press/release actions...">
<polygon fill="white" stroke="#666666" points="134.75,-20 70,-20 70,0 134.75,0 134.75,-20"/>
<text text-anchor="middle" x="102.38" y="-6.5" font-family="Helvetica,sans-Serif" font-size="10.00">checkKeys</text>
</a>
</g>
</g>
<!-- Node1&#45;&gt;Node2 -->
<g id="edge1_Node000001_Node000002" class="edge">
<title>Node1&#45;&gt;Node2</title>
<g id="a_edge1_Node000001_Node000002"><a xlink:title=" ">
<path fill="none" stroke="#63b8ff" d="M159.1,-10C150.74,-10 142.45,-10 134.92,-10"/>
<polygon fill="#63b8ff" stroke="#63b8ff" points="158.98,-13.5 168.98,-10 158.98,-6.5 158.98,-13.5"/>
</a>
</g>
</g>
<!-- Node3 -->
<g id="Node000003" class="node">
<title>Node3</title>
<g id="a_Node000003"><a xlink:href="_a_v_l_a_b_s___a_v___r_k___m_k_i_i_8cpp.html#afe461d27b9c48d5921c00d521181f12f" target="_top" xlink:title="void loop(), infinite loop function">
<polygon fill="white" stroke="#666666" points="34,-20 0,-20 0,0 34,0 34,-20"/>
<text text-anchor="middle" x="17" y="-6.5" font-family="Helvetica,sans-Serif" font-size="10.00">loop</text>
</a>
</g>
</g>
<!-- Node2&#45;&gt;Node3 -->
<g id="edge2_Node000002_Node000003" class="edge">
<title>Node2&#45;&gt;Node3</title>
<g id="a_edge2_Node000002_Node000003"><a xlink:title=" ">
<path fill="none" stroke="#63b8ff" d="M58.51,-10C49.82,-10 41.19,-10 34.14,-10"/>
<polygon fill="#63b8ff" stroke="#63b8ff" points="58.34,-13.5 68.34,-10 58.34,-6.5 58.34,-13.5"/>
</a>
</g>
</g>
</g>
</svg>
