<?xml version="1.0" encoding="UTF-8" standalone="no"?>
<!DOCTYPE svg PUBLIC "-//W3C//DTD SVG 1.1//EN"
 "http://www.w3.org/Graphics/SVG/1.1/DTD/svg11.dtd">
<!-- Generated by graphviz version 12.2.1 (20241206.2353)
 -->
<!-- Title: loop Pages: 1 -->
<svg width="330pt" height="66pt"
 viewBox="0.00 0.00 329.75 66.00" xmlns="http://www.w3.org/2000/svg" xmlns:xlink="http://www.w3.org/1999/xlink">
<g id="graph0" class="graph" transform="scale(1 1) rotate(0) translate(4 62)">
<title>loop</title>
<!-- Node1 -->
<g id="Node000001" class="node">
<title>Node1</title>
<g id="a_Node000001"><a xlink:title="void loop(), infinite loop function">
<polygon fill="#999999" stroke="#666666" points="34,-39 0,-39 0,-19 34,-19 34,-39"/>
<text text-anchor="middle" x="17" y="-25.5" font-family="Helvetica,sans-Serif" font-size="10.00">loop</text>
</a>
</g>
</g>
<!-- Node2 -->
<g id="Node000002" class="node">
<title>Node2</title>
<g id="a_Node000002"><a xlink:href="_a_v_l_a_b_s___a_v___r_k___m_k_i_i_8cpp.html#a456c92bd38c33b10ce243b3057a7d27e" target="_top" xlink:title="Checks the state of each key connected to a specific PCA9505 chip, triggers key press/release actions...">
<polygon fill="white" stroke="#666666" points="159.5,-58 94.75,-58 94.75,-38 159.5,-38 159.5,-58"/>
<text text-anchor="middle" x="127.12" y="-44.5" font-family="Helvetica,sans-Serif" font-size="10.00">checkKeys</text>
</a>
</g>
</g>
<!-- Node1&#45;&gt;Node2 -->
<g id="edge1_Node000001_Node000002" class="edge">
<title>Node1&#45;&gt;Node2</title>
<g id="a_edge1_Node000001_Node000002"><a xlink:title=" ">
<path fill="none" stroke="#63b8ff" d="M34.42,-31.89C47.41,-34.17 66.15,-37.46 83.31,-40.48"/>
<polygon fill="#63b8ff" stroke="#63b8ff" points="82.34,-43.86 92.79,-42.14 83.55,-36.96 82.34,-43.86"/>
</a>
</g>
</g>
<!-- Node4 -->
<g id="Node000004" class="node">
<title>Node4</title>
<g id="a_Node000004"><a xlink:href="_a_v_l_a_b_s___a_v___r_k___m_k_i_i_8cpp.html#aeddd51544efa381ba6186ab15b78a85b" target="_top" xlink:title="Processes trackball motion and sends smooth, accelerated mouse movements.">
<polygon fill="white" stroke="#666666" points="184.25,-20 70,-20 70,0 184.25,0 184.25,-20"/>
<text text-anchor="middle" x="127.12" y="-6.5" font-family="Helvetica,sans-Serif" font-size="10.00">updateTrackballMotion</text>
</a>
</g>
</g>
<!-- Node1&#45;&gt;Node4 -->
<g id="edge3_Node000001_Node000004" class="edge">
<title>Node1&#45;&gt;Node4</title>
<g id="a_edge3_Node000001_Node000004"><a xlink:title=" ">
<path fill="none" stroke="#63b8ff" d="M34.42,-26.11C41.23,-24.92 49.61,-23.45 58.52,-21.88"/>
<polygon fill="#63b8ff" stroke="#63b8ff" points="58.84,-25.38 68.08,-20.2 57.63,-18.48 58.84,-25.38"/>
</a>
</g>
</g>
<!-- Node3 -->
<g id="Node000003" class="node">
<title>Node3</title>
<g id="a_Node000003"><a xlink:href="_a_v_l_a_b_s___a_v___r_k___m_k_i_i_8cpp.html#af6f73b1733da4c9f4e7916779f21aa0e" target="_top" xlink:title="changingArmDeploy(), Moves a servo motor to deploy or retract a charging arm.">
<polygon fill="white" stroke="#666666" points="321.75,-58 220.25,-58 220.25,-38 321.75,-38 321.75,-58"/>
<text text-anchor="middle" x="271" y="-44.5" font-family="Helvetica,sans-Serif" font-size="10.00">chargingArmDeploy</text>
</a>
</g>
</g>
<!-- Node2&#45;&gt;Node3 -->
<g id="edge2_Node000002_Node000003" class="edge">
<title>Node2&#45;&gt;Node3</title>
<g id="a_edge2_Node000002_Node000003"><a xlink:title=" ">
<path fill="none" stroke="#63b8ff" d="M159.96,-48C174.3,-48 191.74,-48 208.47,-48"/>
<polygon fill="#63b8ff" stroke="#63b8ff" points="208.37,-51.5 218.37,-48 208.37,-44.5 208.37,-51.5"/>
</a>
</g>
</g>
</g>
</svg>
