<?xml version="1.0" encoding="UTF-8" standalone="no"?>
<!DOCTYPE svg PUBLIC "-//W3C//DTD SVG 1.1//EN"
 "http://www.w3.org/Graphics/SVG/1.1/DTD/svg11.dtd">
<!-- Generated by graphviz version 12.2.1 (20241206.2353)
 -->
<!-- Title: AVLABS_AV_RK_MKII.cpp Pages: 1 -->
<svg width="375pt" height="84pt"
 viewBox="0.00 0.00 375.00 84.00" xmlns="http://www.w3.org/2000/svg" xmlns:xlink="http://www.w3.org/1999/xlink">
<g id="graph0" class="graph" transform="scale(1 1) rotate(0) translate(4 80)">
<title>AVLABS_AV_RK_MKII.cpp</title>
<!-- Node1 -->
<g id="Node000001" class="node">
<title>Node1</title>
<g id="a_Node000001"><a xlink:title=" ">
<polygon fill="#999999" stroke="#666666" points="276.62,-76 139.88,-76 139.88,-56 276.62,-56 276.62,-76"/>
<text text-anchor="middle" x="208.25" y="-62.5" font-family="Helvetica,sans-Serif" font-size="10.00">AVLABS_AV_RK_MKII.cpp</text>
</a>
</g>
</g>
<!-- Node2 -->
<g id="Node000002" class="node">
<title>Node2</title>
<g id="a_Node000002"><a xlink:title=" ">
<polygon fill="#e0e0e0" stroke="#999999" points="92.5,-20 0,-20 0,0 92.5,0 92.5,-20"/>
<text text-anchor="middle" x="46.25" y="-6.5" font-family="Helvetica,sans-Serif" font-size="10.00">PCA9505_9506.h</text>
</a>
</g>
</g>
<!-- Node1&#45;&gt;Node2 -->
<g id="edge1_Node000001_Node000002" class="edge">
<title>Node1&#45;&gt;Node2</title>
<g id="a_edge1_Node000001_Node000002"><a xlink:title=" ">
<path fill="none" stroke="#63b8ff" d="M180.03,-55.59C153.83,-46.86 114.57,-33.77 85.35,-24.03"/>
<polygon fill="#63b8ff" stroke="#63b8ff" points="86.72,-20.8 76.12,-20.96 84.5,-27.44 86.72,-20.8"/>
</a>
</g>
</g>
<!-- Node3 -->
<g id="Node000003" class="node">
<title>Node3</title>
<g id="a_Node000003"><a xlink:title=" ">
<polygon fill="#e0e0e0" stroke="#999999" points="211.62,-20 110.88,-20 110.88,0 211.62,0 211.62,-20"/>
<text text-anchor="middle" x="161.25" y="-6.5" font-family="Helvetica,sans-Serif" font-size="10.00">pimoroniTrackball.h</text>
</a>
</g>
</g>
<!-- Node1&#45;&gt;Node3 -->
<g id="edge2_Node000001_Node000003" class="edge">
<title>Node1&#45;&gt;Node3</title>
<g id="a_edge2_Node000001_Node000003"><a xlink:title=" ">
<path fill="none" stroke="#63b8ff" d="M200.06,-55.59C193.66,-48.24 184.57,-37.8 176.8,-28.87"/>
<polygon fill="#63b8ff" stroke="#63b8ff" points="179.54,-26.69 170.34,-21.44 174.26,-31.28 179.54,-26.69"/>
</a>
</g>
</g>
<!-- Node4 -->
<g id="Node000004" class="node">
<title>Node4</title>
<g id="a_Node000004"><a xlink:title=" ">
<polygon fill="#e0e0e0" stroke="#999999" points="283,-20 229.5,-20 229.5,0 283,0 283,-20"/>
<text text-anchor="middle" x="256.25" y="-6.5" font-family="Helvetica,sans-Serif" font-size="10.00">Mouse.h</text>
</a>
</g>
</g>
<!-- Node1&#45;&gt;Node4 -->
<g id="edge3_Node000001_Node000004" class="edge">
<title>Node1&#45;&gt;Node4</title>
<g id="a_edge3_Node000001_Node000004"><a xlink:title=" ">
<path fill="none" stroke="#63b8ff" d="M216.61,-55.59C223.15,-48.24 232.43,-37.8 240.37,-28.87"/>
<polygon fill="#63b8ff" stroke="#63b8ff" points="242.95,-31.23 246.98,-21.43 237.72,-26.58 242.95,-31.23"/>
</a>
</g>
</g>
<!-- Node5 -->
<g id="Node000005" class="node">
<title>Node5</title>
<g id="a_Node000005"><a xlink:title=" ">
<polygon fill="#e0e0e0" stroke="#999999" points="367,-20 301.5,-20 301.5,0 367,0 367,-20"/>
<text text-anchor="middle" x="334.25" y="-6.5" font-family="Helvetica,sans-Serif" font-size="10.00">Keyboard.h</text>
</a>
</g>
</g>
<!-- Node1&#45;&gt;Node5 -->
<g id="edge4_Node000001_Node000005" class="edge">
<title>Node1&#45;&gt;Node5</title>
<g id="a_edge4_Node000001_Node000005"><a xlink:title=" ">
<path fill="none" stroke="#63b8ff" d="M230.2,-55.59C249.95,-47.13 279.24,-34.58 301.72,-24.94"/>
<polygon fill="#63b8ff" stroke="#63b8ff" points="302.93,-28.23 310.74,-21.08 300.17,-21.8 302.93,-28.23"/>
</a>
</g>
</g>
</g>
</svg>
